<svg xmlns="http://www.w3.org/2000/svg" width="410" height="404" viewBox="0 0 410 404" fill="none">
  <path d="M399.641 59.5253L215.643 388.545C211.844 395.338 201.756 395.378 197.912 388.618L10.5817 59.5563C6.38087 52.1896 12.6802 43.2665 21.0281 44.7586L205.223 77.6824C206.398 77.8924 207.601 77.8904 208.776 77.6763L389.119 44.8058C397.439 43.2894 403.768 52.1434 399.641 59.5253Z" fill="url(#paint0_linear)"/>
  <path d="M292.965 1.5744L156.791 28.2552C155.563 28.495 154.409 29.0171 153.422 29.771L17.1373 134.29C10.3299 139.415 12.7284 150.325 21.1965 152.01L112.986 170.009C114.242 170.261 115.543 170.199 116.768 169.83L187.673 148.697C196.269 146.116 204.507 154.039 202.164 162.753L183.179 230.102C182.84 231.347 182.763 232.649 182.955 233.913L201.247 352.225C202.648 361.013 214.247 363.534 218.541 355.785L222.457 348.684L349.211 103.63C353.363 95.341 346.739 85.711 337.581 87.4607L265.394 101.641C256.142 103.407 249.125 93.6089 253.216 85.2307L308.981 0.88867C312.128 -4.83091 301.817 -0.876472 292.965 1.5744Z" fill="url(#paint1_linear)"/>
  <defs>
    <linearGradient id="paint0_linear" x1="6.00017" y1="32.9999" x2="235" y2="344" gradientUnits="userSpaceOnUse">
      <stop stop-color="#41D1FF"/>
      <stop offset="1" stop-color="#BD34FE"/>
    </linearGradient>
    <linearGradient id="paint1_linear" x1="194.651" y1="8.81818" x2="236.076" y2="292.989" gradientUnits="userSpaceOnUse">
      <stop stop-color="#FFEA83"/>
      <stop offset="0.0833333" stop-color="#FFDD35"/>
      <stop offset="1" stop-color="#FFA800"/>
    </linearGradient>
  </defs>
</svg>
